/* XPM */
static char * close_pressed_xpm[] = {
"21 20 8 1",
" 	c None",
".	c #000000",
"+	c #07080A",
"@	c #12171D",
"#	c #0D1014",
"$	c #222B33",
"%	c #27313B",
"&	c #2A353F",
"                     ",
"                     ",
"                     ",
"                     ",
"                     ",
"                     ",
"                     ",
"                     ",
"                     ",
"          .......... ",
"         .++++++++++.",
"         .@@@@@@@@@@.",
"         .##########.",
"         $..........$",
"          %&&&&&&&&% ",
"                     ",
"                     ",
"                     ",
"                     ",
"                     "};
