/* XPM */
static char * hide_active_xpm[] = {
"21 20 10 1",
" 	c None",
".	c #000000",
"+	c #12171D",
"@	c #5B5B5B",
"#	c #424242",
"$	c #636363",
"%	c #A2A2A2",
"&	c #222B33",
"*	c #27313B",
"=	c #2A353F",
"                     ",
"                     ",
"                     ",
"                     ",
"                     ",
"                     ",
"                     ",
"                     ",
"                     ",
"          .......... ",
"         .++++++++++.",
"         .@@@@@@@@@#.",
"         .$%%%%%%%%$.",
"         &..........&",
"          *========* ",
"                     ",
"                     ",
"                     ",
"                     ",
"                     "};
