/* XPM */
static char * title_1_active_xpm[] = {
"20 20 75 1",
" 	c None",
".	c #364451",
"+	c #12171D",
"@	c #000000",
"#	c #2D3944",
"$	c #2D3844",
"%	c #2D3943",
"&	c #2D3843",
"*	c #2C3944",
"=	c #2B3742",
"-	c #2B3741",
";	c #2B3642",
">	c #2B3641",
",	c #2C3742",
"'	c #2C3642",
")	c #2A353F",
"!	c #29353F",
"~	c #293440",
"{	c #2A3540",
"]	c #29343F",
"^	c #2A343F",
"/	c #2A3440",
"(	c #29323D",
"_	c #28333D",
":	c #28323D",
"<	c #27313B",
"[	c #27303A",
"}	c #26313A",
"|	c #26303B",
"1	c #26313B",
"2	c #26303A",
"3	c #27313A",
"4	c #27303B",
"5	c #242F38",
"6	c #252E38",
"7	c #252F38",
"8	c #242E38",
"9	c #252F39",
"0	c #252E39",
"a	c #242D36",
"b	c #232D36",
"c	c #232C36",
"d	c #242D35",
"e	c #212A34",
"f	c #222B34",
"g	c #212A33",
"h	c #222A33",
"i	c #212B34",
"j	c #222A34",
"k	c #222B33",
"l	c #212B33",
"m	c #212931",
"n	c #212832",
"o	c #202932",
"p	c #202931",
"q	c #202831",
"r	c #212831",
"s	c #1E262F",
"t	c #1E272F",
"u	c #1F272F",
"v	c #1F262F",
"w	c #1D252D",
"x	c #1D252C",
"y	c #1D242D",
"z	c #1C242D",
"A	c #1C252D",
"B	c #1D242C",
"C	c #1B2229",
"D	c #1A2229",
"E	c #1A222A",
"F	c #1B2129",
"G	c #1A2129",
"H	c #1A212A",
"I	c #1B212A",
"J	c #1B222A",
"....................",
"++++++++++++++++++++",
"++++++++++++++++++++",
"++++++++++++++++++++",
"@@@@@@@@@@@@@@@@@@@@",
"....................",
"###$#%&##$$##$#*$#%$",
"==-;=>>,-,>-'-=,'=-;",
")!)!~{)!)!]]^/){{{^^",
"(_________::_:____(:",
"<<<[}}|1<2[<1<3[1342",
"56666766877676967006",
"abcbcbbcbbacbcadcabb",
"efghifjhklillhiiljff",
"mnooopoopqmqrpqpppqo",
"stssttuvustsstuuutvv",
"wxxyzAxwyyAyywwwywBy",
"CDEDFEEGDDHGIDEGGEDJ",
"@@@@@@@@@@@@@@@@@@@@",
"))))))))))))))))))))"};
