/* XPM */
static char * top_left_active_shaded_xpm[] = {
"30 20 46 1",
" 	c None",
".	c #364451",
"+	c #12171D",
"@	c #29333B",
"#	c #000000",
"$	c #2A353F",
"%	c #2D3944",
"&	c #2D3844",
"*	c #2B3742",
"=	c #2B3741",
"-	c #2B3642",
";	c #2A3440",
">	c #29353F",
",	c #293440",
"'	c #28333D",
")	c #29323D",
"!	c #27313B",
"~	c #27303A",
"{	c #26313A",
"]	c #252E39",
"^	c #242F38",
"/	c #252E38",
"(	c #232D36",
"_	c #242D36",
":	c #232C36",
"<	c #222B34",
"[	c #212A34",
"}	c #212A33",
"|	c #222A33",
"1	c #212B34",
"2	c #202832",
"3	c #212931",
"4	c #212832",
"5	c #202932",
"6	c #1F262F",
"7	c #1E262F",
"8	c #1E272F",
"9	c #1D242D",
"0	c #1D252D",
"a	c #1D252C",
"b	c #1C242D",
"c	c #222B33",
"d	c #1A2229",
"e	c #1B2229",
"f	c #1A222A",
"g	c #1B2129",
"     .........................",
"   ..+++++++++++++++++++++++++",
"  .+++++++++++++++++++++++++++",
" .++++++++++++++++++++++++++++",
" @++++++++++++++++++++++######",
"@++++++++++++++++++++++#$.....",
"++++++++++++++++++++++#$.%%%&%",
"++++++++++++++++++++++#.***=-*",
"++++++++++++++++++++++#;;$>$>,",
"++++++++++++++++++++++#'')''''",
"++++++++++++++++++++++#!!!!!~{",
"++++++++++++++++++++++#]]^////",
"++++++++++++++++++++++#((_(:(:",
"++++++++++++++++++++++#<<[<}|1",
"++++++++++++++++++++++#2234555",
"++++++++++++++++++++++#6678778",
"++++++++++++++++++++++#990aa9b",
"++++++++++++++++++++++c#dedfdg",
"+++++++++++++++++++++++c######",
"++++++++++++++++++++++++!$$$$$"};
