/* XPM */
static char * top_right_active_xpm[] = {
"80 20 46 1",
" 	c None",
".	c #364451",
"+	c #12171D",
"@	c #000000",
"#	c #29333B",
"$	c #2A353F",
"%	c #2D3944",
"&	c #2D3844",
"*	c #2B3742",
"=	c #2B3642",
"-	c #2B3741",
";	c #293440",
">	c #29353F",
",	c #2A3440",
"'	c #28333D",
")	c #29323D",
"!	c #26313A",
"~	c #27303A",
"{	c #27313B",
"]	c #252E38",
"^	c #242F38",
"/	c #252E39",
"(	c #232C36",
"_	c #232D36",
":	c #242D36",
"<	c #212B34",
"[	c #222A33",
"}	c #212A33",
"|	c #222B34",
"1	c #212A34",
"2	c #202932",
"3	c #212832",
"4	c #212931",
"5	c #202832",
"6	c #1E272F",
"7	c #1E262F",
"8	c #1F262F",
"9	c #1C242D",
"0	c #1D242D",
"a	c #1D252C",
"b	c #1D252D",
"c	c #1B2129",
"d	c #1A2229",
"e	c #1A222A",
"f	c #1B2229",
"g	c #222B33",
"...........................................................................     ",
"+++++++++++++++++++++++++++++++++++++++++++++++++++++++++++++++++++++++++++..   ",
"+++++++++++++++++++++++++++++++++++++++++++++++++++++++++++++++++++++++++++++.  ",
"++++++++++++++++++++++++++++++++++++++++++++++++++++++++++++++++++++++++++++++. ",
"@@@@@@++++++++++++++++++++++++++++++++++++++++++++++++++++++++++++++++++++++++# ",
".....$@++++++++++++++++++++++++++++++++++++++++++++++++++++++++++++++++++++++++#",
"%&%%%.$@++++++++++++++++++++++++++++++++++++++++++++++++++++++++++++++++++++++++",
"*=-***.@++++++++++++++++++++++++++++++++++++++++++++++++++++++++++++++++++++++++",
";>$>$,,@++++++++++++++++++++++++++++++++++++++++++++++++++++++++++++++++++++++++",
"'''')''@++++++++++++++++++++++++++++++++++++++++++++++++++++++++++++++++++++++++",
"!~{{{{{@++++++++++++++++++++++++++++++++++++++++++++++++++++++++++++++++++++++++",
"]]]]^//@++++++++++++++++++++++++++++++++++++++++++++++++++++++++++++++++++++++++",
"(_(_:__@++++++++++++++++++++++++++++++++++++++++++++++++++++++++++++++++++++++++",
"<[}|1||@++++++++++++++++++++++++++++++++++++++++++++++++++++++++++++++++++++++++",
"2223455@++++++++++++++++++++++++++++++++++++++++++++++++++++++++++++++++++++++++",
"6776788@++++++++++++++++++++++++++++++++++++++++++++++++++++++++++++++++++++++++",
"90aab00@++++++++++++++++++++++++++++++++++++++++++++++++++++++++++++++++++++++++",
"cdedfd@g++++++++++++++++++++++++++++++++++++++++++++++++++++++++++++++++++++++++",
"@@@@@@g+++++++++++++++++++++++++++++++++++++++++++++++++++++++++++++++++++++++++",
"$$$$${++++++++++++++++++++++++++++++++++++++++++++++++++++++++++++++++++++++++++"};
